<?xml version="1.0" encoding="UTF-8"?>
<!DOCTYPE svg PUBLIC "-//W3C//DTD SVG 1.1//EN" "http://www.w3.org/Graphics/SVG/1.1/DTD/svg11.dtd">
<!-- Creator: CorelDRAW -->
<svg xmlns="http://www.w3.org/2000/svg" xml:space="preserve" width="148mm" height="105mm" style="shape-rendering:geometricPrecision; text-rendering:geometricPrecision; image-rendering:optimizeQuality; fill-rule:evenodd; clip-rule:evenodd"
viewBox="0 0 148 105"
 xmlns:xlink="http://www.w3.org/1999/xlink">
 <defs>
  <style type="text/css">
   <![CDATA[
    .str0 {stroke:#373435;stroke-width:0.2}
    .fil4 {fill:none}
    .fil1 {fill:#373435}
    .fil2 {fill:#00A859}
    .fil0 {fill:#3E4095}
    .fil3 {fill:black;fill-rule:nonzero}
   ]]>
  </style>
 </defs>
 <g id="Capa_x0020_1">
  <metadata id="CorelCorpID_0Corel-Layer"/>
  <path class="fil0 str0" d="M73.0675 36.2979l-14.1945 -6.9544c0.7173,-1.5705 1.1095,-3.2681 1.1095,-5.0398 0,-8.0419 -8.0706,-14.5611 -18.0261,-14.5611 -5.2909,0 -10.0494,1.8413 -13.347,4.7739l-28.9864 -14.2014 74.0834 0.0962 74.0835 0.0961 -31.0272 14.8614c-3.1667,-2.2286 -7.3058,-3.5785 -11.8355,-3.5785 -9.9556,0 -18.0262,6.5192 -18.0262,14.5611 0,1.0715 0.1446,2.1155 0.4165,3.1211l-14.25 6.8254z"/>
  <g id="_222223008">
   <polygon id="_226474464" class="fil1 str0" points="128.185,88.1107 104.226,104.825 148.319,104.825 148.319,72.5458 107.638,72.5458 "/>
   <path id="_222227256" class="fil1 str0" d="M95.7595 104.825l7.5852 -5.2916 -103.457 0 0 5.2916 95.8722 0zm10.6194 -7.4083l11.7573 -8.2021 -118.249 0 0 8.2021 106.492 0zm12.0027 -10.3188l-9.78 -7.4083 -108.714 0 0 7.4083 118.494 0zm-12.5743 -9.525l-7.3351 -5.5563 -98.5849 0 0 5.5563 105.92 0z"/>
  </g>
  <path class="fil2" d="M10.481 49.4888l0 14.7279 -10.4196 0 0 -9.6696c4.1538,-1.0466 7.7493,-2.8116 10.4196,-5.0583zm4.9148 -10.673c5.1286,0.1766 9.2078,1.1464 12.2438,2.9146 4.0049,2.3466 6.003,5.5325 6.003,9.5579 0,3.8474 -1.7088,6.9889 -5.1353,9.4245 -3.4178,2.4355 -7.8257,3.6502 -13.224,3.6502 -0.631,0 -1.6651,-0.0255 -3.1022,-0.07l0 -7.4721 1.6651 0c6.0729,0 9.1138,-1.8442 9.1138,-5.5326 0,-3.4657 -2.9883,-5.2018 -8.9562,-5.2018l-0.4469 0c1.2288,-1.8696 1.908,-3.9259 1.908,-6.0844 0,-0.3991 -0.0234,-0.7947 -0.0691,-1.1863zm35.8612 12.6379l0 6.709 -3.006 0 0 6.054 -10.4196 0 0 -16.1716c0,-3.1287 1.1743,-5.5643 3.5317,-7.294 2.3486,-1.7361 5.6612,-2.601 9.9201,-2.601 4.11,0 7.1509,0.7886 9.114,2.3593 1.9717,1.5708 2.9531,3.9936 2.9531,7.275l0 16.4323 -10.4195 0 0 -15.9299c0,-0.9921 -0.1665,-1.6852 -0.4908,-2.0668 -0.3242,-0.3879 -0.9026,-0.5787 -1.7439,-0.5787 -1.63,0 -2.4451,0.884 -2.4451,2.6455l0 3.1669 3.006 0zm43.5977 -12.6676l-15.2745 26.8805 -15.1694 -26.8805 12.0671 0 3.2075 7.9363 3.5403 -7.9363 11.629 0zm12.7069 0l0 25.4306 -10.4196 0 0 -25.4306 10.4196 0zm17.4303 7.3004l0 18.1302 -10.4196 0 0 -25.4306 13.5832 0c2.5984,0 4.9502,0.1863 7.0561,0.5592 -0.7863,1.5383 -1.2133,3.182 -1.2133,4.8901 0,0.9325 0.1271,1.8459 0.3704,2.7334 -1.4463,-0.5878 -3.3975,-0.8823 -5.854,-0.8823l-3.5228 0zm21.0999 11.6661c-0.7945,1.0813 -1.8187,2.0682 -3.0736,2.9602 -3.4177,2.4355 -7.8257,3.6502 -13.224,3.6502 -0.631,0 -1.6651,-0.0255 -3.1022,-0.07l0 -7.4721 1.6651 0c5.5393,0 8.5555,-1.5347 9.0429,-4.6034 2.1162,2.2885 5.1137,4.1987 8.6918,5.5351z"/>
  <g id="_226392184">
   <g id="spray4.cdr">
    <path id="_222223944" class="fil3" d="M79.5867 19.6251c0,0 -2.4518,-0.139 -3.7599,-0.5436 -1.3077,-0.4047 -5.3946,-1.3787 -6.3753,-0.974 -0.9811,0.4046 -2.9425,0.9105 -1.9618,2.0235 0.9807,1.1127 -2.1251,4.7283 1.1444,3.0346 2.1311,-1.1035 2.1255,5.4257 3.5962,3.5034 1.4715,-1.9219 4.2505,-2.4278 6.3757,-2.6303 2.1251,-0.2021 2.4521,-3.6043 0.9807,-4.4136z"/>
    <path id="_226312392" class="fil3" d="M84.9039 16.2139c-1.0097,0.9168 -3.1535,3.7199 -2.6621,4.2607 0.4911,0.5401 3.4322,-1.3857 4.4411,-2.3029 1.0097,-0.9169 1.4298,-2.0982 0.9381,-2.6397 -0.4911,-0.5405 -1.7078,-0.236 -2.7171,0.6819z"/>
    <path id="_226392280" class="fil3" d="M62.9253 11.2805c-0.2957,-1.331 0.0434,-2.5389 0.757,-2.697 0.713,-0.1584 1.5307,0.7934 1.826,2.1248 0.2949,1.3314 1.3215,7.0812 0.6082,7.2392 -0.7137,0.1584 -2.8963,-5.3349 -3.1912,-6.667z"/>
    <path id="_220468688" class="fil3" d="M79.7927 9.9765c-0.7161,1.6006 -2.8928,7.9127 -2.2705,8.1914 0.6227,0.2784 3.8079,-5.5819 4.5244,-7.1824 0.7161,-1.6006 0.7927,-3.1235 0.17,-3.4026 -0.6226,-0.2783 -1.7077,0.7931 -2.4239,2.3936z"/>
    <path id="_226312032" class="fil3" d="M72.2891 7.3293c-0.2713,1.9787 0.321,9.5979 1.1899,9.7172 0.8685,0.1192 1.6848,-7.307 1.956,-9.2854 0.2717,-1.9791 -0.213,-3.6791 -1.0815,-3.7983 -0.8682,-0.1193 -1.7925,1.3881 -2.0644,3.3665z"/>
    <path id="_226312752" class="fil3" d="M80.0446 25.1693c0,0 -0.5292,0.5292 -2.6459,2.1167 -2.1165,1.5875 -5.4679,2.1166 -6.3499,1.9402 -0.8819,-0.1764 -2.4694,-1.7639 -2.8222,-2.4694 -0.3528,-0.7056 -2.4694,-0.7056 -1.9403,0.7055 0.5292,1.4112 3.5278,5.1153 5.2917,4.057 1.7639,-1.0583 9.8777,-4.057 8.4666,-6.35z"/>
   </g>
  </g>
  <path class="fil4" d="M75.3225 17.8314c3.9688,0 13.4938,2.9104 15.875,6.0854 1.0584,1.0583 2.1167,2.6458 3.175,3.7041"/>
  <path class="fil4 str0" d="M73.7064 0.4113l74.0835 0.0961 -31.0272 14.8614c-3.1667,-2.2286 -7.3058,-3.5785 -11.8355,-3.5785 -7.8268,0 -14.4886,4.0293 -16.9796,9.66 -0.6776,1.5315 -1.0466,3.1814 -1.0466,4.901 0,1.0716 0.1446,2.1156 0.4165,3.1212l-14.25 6.8254 -14.1945 -6.9543c0.7173,-1.5705 1.1095,-3.2682 1.1095,-5.0399 0,-8.0419 -8.0706,-14.561 -18.0261,-14.561 -5.2909,0 -10.0494,1.8412 -13.347,4.7738l-28.9864 -14.2014 74.0834 0.0962z"/>
 </g>
</svg>
